<svg width="23" height="20" viewBox="0 0 23 20" fill="none" xmlns="http://www.w3.org/2000/svg">
<path d="M2.66667 1.53846C2.66667 2.38813 2.06971 3.07692 1.33333 3.07692C0.596954 3.07692 0 2.38813 0 1.53846C0 0.688792 0.596954 0 1.33333 0C2.06971 0 2.66667 0.688792 2.66667 1.53846Z" fill="white"/>
<path d="M16 1.53846C16 2.38813 15.4031 3.07692 14.6667 3.07692C13.9303 3.07692 13.3333 2.38813 13.3333 1.53846C13.3333 0.688792 13.9303 0 14.6667 0C15.4031 0 16 0.688792 16 1.53846Z" fill="white"/>
<path d="M9.33336 1.53846C9.33336 2.38813 8.7364 3.07692 8.00002 3.07692C7.26364 3.07692 6.66669 2.38813 6.66669 1.53846C6.66669 0.688792 7.26364 0 8.00002 0C8.7364 0 9.33336 0.688792 9.33336 1.53846Z" fill="white"/>
<path d="M22.6667 1.53846C22.6667 2.38813 22.0697 3.07692 21.3333 3.07692C20.597 3.07692 20 2.38813 20 1.53846C20 0.688792 20.597 0 21.3333 0C22.0697 0 22.6667 0.688792 22.6667 1.53846Z" fill="white"/>
<path d="M22.6667 7.17951C22.6667 8.02918 22.0697 8.71797 21.3333 8.71797C20.597 8.71797 20 8.02918 20 7.17951C20 6.32984 20.597 5.64105 21.3333 5.64105C22.0697 5.64105 22.6667 6.32984 22.6667 7.17951Z" fill="white"/>
<path d="M16 7.17951C16 8.02918 15.4031 8.71797 14.6667 8.71797C13.9303 8.71797 13.3333 8.02918 13.3333 7.17951C13.3333 6.32984 13.9303 5.64105 14.6667 5.64105C15.4031 5.64105 16 6.32984 16 7.17951Z" fill="white"/>
<path d="M9.33336 7.17951C9.33336 8.02918 8.7364 8.71797 8.00002 8.71797C7.26364 8.71797 6.66669 8.02918 6.66669 7.17951C6.66669 6.32984 7.26364 5.64105 8.00002 5.64105C8.7364 5.64105 9.33336 6.32984 9.33336 7.17951Z" fill="white"/>
<path d="M2.66667 7.17948C2.66667 8.02915 2.06971 8.71794 1.33333 8.71794C0.596954 8.71794 0 8.02915 0 7.17948C0 6.32981 0.596954 5.64102 1.33333 5.64102C2.06971 5.64102 2.66667 6.32981 2.66667 7.17948Z" fill="white"/>
<path d="M2.66667 12.8205C2.66667 13.6702 2.06971 14.359 1.33333 14.359C0.596954 14.359 0 13.6702 0 12.8205C0 11.9708 0.596954 11.282 1.33333 11.282C2.06971 11.282 2.66667 11.9708 2.66667 12.8205Z" fill="white"/>
<path d="M9.33336 12.8718C9.33336 13.7214 8.7364 14.4102 8.00002 14.4102C7.26364 14.4102 6.66669 13.7214 6.66669 12.8718C6.66669 12.0221 7.26364 11.3333 8.00002 11.3333C8.7364 11.3333 9.33336 12.0221 9.33336 12.8718Z" fill="white"/>
<path d="M16 12.8205C16 13.6702 15.4031 14.359 14.6667 14.359C13.9303 14.359 13.3333 13.6702 13.3333 12.8205C13.3333 11.9708 13.9303 11.282 14.6667 11.282C15.4031 11.282 16 11.9708 16 12.8205Z" fill="white"/>
<path d="M22.6667 12.8205C22.6667 13.6702 22.0697 14.359 21.3333 14.359C20.597 14.359 20 13.6702 20 12.8205C20 11.9708 20.597 11.282 21.3333 11.282C22.0697 11.282 22.6667 11.9708 22.6667 12.8205Z" fill="white"/>
<path d="M2.66667 18.4615C2.66667 19.3112 2.06971 20 1.33333 20C0.596954 20 0 19.3112 0 18.4615C0 17.6119 0.596954 16.9231 1.33333 16.9231C2.06971 16.9231 2.66667 17.6119 2.66667 18.4615Z" fill="white"/>
<path d="M9.33336 18.4615C9.33336 19.3112 8.7364 20 8.00002 20C7.26364 20 6.66669 19.3112 6.66669 18.4615C6.66669 17.6119 7.26364 16.9231 8.00002 16.9231C8.7364 16.9231 9.33336 17.6119 9.33336 18.4615Z" fill="white"/>
<path d="M22.6667 18.4615C22.6667 19.3112 22.0697 20 21.3333 20C20.597 20 20 19.3112 20 18.4615C20 17.6119 20.597 16.9231 21.3333 16.9231C22.0697 16.9231 22.6667 17.6119 22.6667 18.4615Z" fill="white"/>
<path d="M16 18.4615C16 19.3112 15.4031 20 14.6667 20C13.9303 20 13.3333 19.3112 13.3333 18.4615C13.3333 17.6119 13.9303 16.9231 14.6667 16.9231C15.4031 16.9231 16 17.6119 16 18.4615Z" fill="white"/>
</svg>
