<svg width="28" height="20" viewBox="0 0 28 20" fill="none" xmlns="http://www.w3.org/2000/svg">
<path d="M0.5 7C0.5 3.41015 3.41015 0.5 7 0.5H21C24.5899 0.5 27.5 3.41015 27.5 7V13C27.5 16.5899 24.5899 19.5 21 19.5H7C3.41015 19.5 0.5 16.5899 0.5 13V7Z" fill="#0F1D89" stroke="white"/>
<path d="M20.6646 14.6708C21.0351 14.8561 21.4856 14.7059 21.6708 14.3354C21.8561 13.9649 21.7059 13.5144 21.3354 13.3292L20.6646 14.6708ZM14.6646 11.6708L20.6646 14.6708L21.3354 13.3292L15.3354 10.3292L14.6646 11.6708Z" fill="white"/>
<path d="M15.5 9C15.5 11.4853 13.4853 13.5 11 13.5C8.51472 13.5 6.5 11.4853 6.5 9C6.5 6.51472 8.51472 4.5 11 4.5C13.4853 4.5 15.5 6.51472 15.5 9Z" fill="#0F1D89" stroke="white"/>
</svg>
